<?xml version="1.0" encoding="UTF-8"?>
<svg xmlns="http://www.w3.org/2000/svg" xmlns:xlink="http://www.w3.org/1999/xlink" viewBox="0 0 1629.96 1320.7">
  <defs>
    <style>
      .cls-1 {
        isolation: isolate;
      }

      .cls-2 {
        stroke-width: 0px;
      }

      .cls-2, .cls-3 {
        fill: none;
      }

      .cls-4 {
        mix-blend-mode: screen;
      }

      .cls-5 {
        clip-path: url(#clippath);
      }

      .cls-3 {
        stroke: #333;
        stroke-miterlimit: 10;
        stroke-width: 3px;
      }
    </style>
    <clipPath id="clippath">
      <rect class="cls-2" width="1629.96" height="1320.7"/>
    </clipPath>
  </defs>
  <g class="cls-1">
    <g id="Ebene_2" data-name="Ebene 2">
      <g id="Layer_1" data-name="Layer 1">
        <g class="cls-5">
          <g>
            <g>
              <g>
                <g class="cls-4">
                  <g>
                    <path class="cls-3" d="m158.45,135.22c-.4.53-.79,1.06-1.19,1.6.89,1.21,1.71,2.46,2.66,3.61,34.68,42.04,69.39,84.06,104.06,126.11,10.05,12.19,10.78,20.74,2.89,34.31-12.63,21.73-25.36,43.4-38.01,65.13-1.3,2.23-2.27,4.64-3.69,7.59,1.73-.37,2.35-.4,2.9-.63,57-23.1,114.01-46.19,170.96-69.42,2.76-1.13,5.57-3.1,7.36-5.44,6.28-8.21,3.46-16.17-7.81-22.75-80.04-46.72-160.09-93.42-240.14-140.13ZM-23.53,380.12c.19.75.39,1.5.58,2.26,2.66-.47,5.34-.86,7.98-1.42,43.33-9.14,86.63-18.41,129.98-27.42,16.55-3.44,25.8,2.15,30.86,18.06,8.56,26.94,16.97,53.93,25.48,80.88,5.9,18.68,11.85,37.34,17.78,56,1.49-1.7,1.7-3.17,1.77-4.64,3.95-80.54,8-161.08,11.54-241.63.19-4.41-2.72-11.03-6.21-12.95-3.54-1.95-10.54-.9-14.4,1.48-40.59,25.06-80.87,50.62-121.21,76.09-28.07,17.73-56.1,35.53-84.14,53.29Z"/>
                    <path class="cls-3" d="m158.45,135.22c80.05,46.71,160.1,93.4,240.14,140.13,11.27,6.58,14.09,14.54,7.81,22.75-1.79,2.34-4.6,4.31-7.36,5.44-56.95,23.23-113.95,46.32-170.96,69.42-.55.22-1.17.26-2.9.63,1.42-2.95,2.4-5.37,3.69-7.59,12.64-21.73,25.37-43.4,38.01-65.13,7.89-13.57,7.16-22.12-2.89-34.31-34.67-42.05-69.38-84.07-104.06-126.11-.95-1.15-1.78-2.41-2.66-3.61.4-.53.79-1.06,1.19-1.6Z"/>
                    <path class="cls-3" d="m-23.53,380.12c28.05-17.77,56.07-35.57,84.14-53.29,40.34-25.47,80.62-51.03,121.21-76.09,3.86-2.38,10.86-3.43,14.4-1.48,3.49,1.92,6.4,8.54,6.21,12.95-3.54,80.56-7.59,161.09-11.54,241.63-.07,1.47-.28,2.94-1.77,4.64-5.93-18.67-11.88-37.33-17.78-56-8.51-26.96-16.92-53.94-25.48-80.88-5.06-15.91-14.31-21.5-30.86-18.06-43.36,9-86.65,18.27-129.98,27.42-2.64.56-5.32.95-7.98,1.42-.19-.75-.39-1.5-.58-2.26Z"/>
                  </g>
                </g>
                <g class="cls-4">
                  <g>
                    <path class="cls-3" d="m471.69,575.76c.4-.53.79-1.06,1.19-1.6-.89-1.21-1.71-2.46-2.66-3.61-34.68-42.04-69.39-84.06-104.06-126.11-10.05-12.19-10.78-20.74-2.89-34.31,12.63-21.73,25.36-43.4,38.01-65.13,1.3-2.23,2.27-4.64,3.69-7.59-1.73.37-2.35.4-2.9.63-57,23.1-114.01,46.19-170.96,69.42-2.76,1.13-5.57,3.1-7.36,5.44-6.28,8.21-3.46,16.17,7.81,22.75,80.04,46.72,160.09,93.42,240.14,140.13Zm181.99-244.9c-.19-.75-.39-1.5-.58-2.26-2.66.47-5.34.86-7.98,1.42-43.33,9.14-86.63,18.41-129.98,27.42-16.55,3.44-25.8-2.15-30.86-18.06-8.56-26.94-16.97-53.93-25.48-80.88-5.9-18.68-11.85-37.34-17.78-56-1.49,1.7-1.7,3.17-1.77,4.64-3.95,80.54-8,161.08-11.54,241.63-.19,4.41,2.72,11.03,6.21,12.95,3.54,1.95,10.54.9,14.4-1.48,40.59-25.06,80.87-50.62,121.21-76.09,28.07-17.73,56.1-35.53,84.14-53.29Z"/>
                    <path class="cls-3" d="m471.69,575.76c-80.05-46.71-160.1-93.4-240.14-140.13-11.27-6.58-14.09-14.54-7.81-22.75,1.79-2.34,4.6-4.31,7.36-5.44,56.95-23.23,113.95-46.32,170.96-69.42.55-.22,1.17-.26,2.9-.63-1.42,2.95-2.4,5.37-3.69,7.59-12.64,21.73-25.37,43.4-38.01,65.13-7.89,13.57-7.16,22.12,2.89,34.31,34.67,42.05,69.38,84.07,104.06,126.11.95,1.15,1.78,2.41,2.66,3.61-.4.53-.79,1.06-1.19,1.6Z"/>
                    <path class="cls-3" d="m653.67,330.86c-28.05,17.77-56.07,35.57-84.14,53.29-40.34,25.47-80.62,51.03-121.21,76.09-3.86,2.38-10.86,3.43-14.4,1.48-3.49-1.92-6.4-8.54-6.21-12.95,3.54-80.56,7.59-161.09,11.54-241.63.07-1.47.28-2.94,1.77-4.64,5.93,18.67,11.88,37.33,17.78,56,8.51,26.96,16.92,53.94,25.48,80.88,5.06,15.91,14.31,21.5,30.86,18.06,43.36-9,86.65-18.27,129.98-27.42,2.64-.56,5.32-.95,7.98-1.42.19.75.39,1.5.58,2.26Z"/>
                  </g>
                </g>
                <g class="cls-4">
                  <g>
                    <path class="cls-3" d="m183.9,212.33c-.26-.61-.53-1.22-.79-1.83-1.49.17-2.99.26-4.46.51-53.73,9.15-107.45,18.34-161.17,27.48-15.57,2.65-23.36-.97-31.2-14.57-12.56-21.77-25.02-43.6-37.57-65.38-1.29-2.23-2.9-4.28-4.75-6.98-.54,1.68-.82,2.24-.9,2.83-8.34,60.94-16.69,121.87-24.88,182.83-.4,2.95-.09,6.37,1.05,9.09,3.99,9.53,12.3,11.05,23.62,4.55,80.36-46.16,160.71-92.35,241.06-138.53ZM62.08-67.41c-.75-.21-1.5-.41-2.25-.62-.92,2.54-1.91,5.06-2.74,7.63C43.45-18.26,29.94,23.9,16.17,65.99c-5.26,16.06-14.7,21.31-31.02,17.77-27.63-5.99-55.22-12.12-82.83-18.16-19.13-4.18-38.28-8.31-57.42-12.46.74,2.14,1.9,3.05,3.15,3.84C-84.07,100.5-16.24,144.1,51.87,187.27c3.73,2.36,10.92,3.13,14.32,1.06,3.46-2.1,6.03-8.7,5.88-13.23-1.53-47.68-3.65-95.34-5.66-143-1.4-33.17-2.89-66.34-4.34-99.51Z"/>
                    <path class="cls-3" d="m183.9,212.33c-80.35,46.18-160.7,92.37-241.06,138.53-11.32,6.5-19.63,4.98-23.62-4.55-1.14-2.72-1.45-6.14-1.05-9.09,8.2-60.96,16.55-121.89,24.88-182.83.08-.59.36-1.14.9-2.83,1.85,2.71,3.46,4.75,4.75,6.98,12.55,21.78,25.01,43.61,37.57,65.38,7.84,13.6,15.63,17.22,31.2,14.57,53.73-9.14,107.45-18.33,161.17-27.48,1.47-.25,2.97-.35,4.46-.51.26.61.53,1.22.79,1.83Z"/>
                    <path class="cls-3" d="m62.08-67.41c1.45,33.17,2.94,66.34,4.34,99.51,2.01,47.66,4.14,95.32,5.66,143,.15,4.53-2.42,11.12-5.88,13.23-3.4,2.07-10.6,1.3-14.32-1.06C-16.24,144.1-84.07,100.5-151.96,56.99c-1.24-.8-2.41-1.7-3.15-3.84,19.14,4.15,38.29,8.27,57.42,12.46,27.61,6.04,55.21,12.17,82.83,18.16,16.32,3.54,25.76-1.71,31.02-17.77C29.94,23.9,43.45-18.26,57.09-60.39c.83-2.57,1.82-5.09,2.74-7.63.75.21,1.5.41,2.25.62Z"/>
                  </g>
                </g>
                <g class="cls-4">
                  <g>
                    <path class="cls-3" d="m373.37,232.84c.43-.51.85-1.02,1.28-1.53-.81-1.26-1.57-2.56-2.45-3.76-32.18-43.99-64.38-87.95-96.55-131.95-9.32-12.75-9.56-21.33-.89-34.42,13.87-20.96,27.84-41.86,41.73-62.81,1.42-2.15,2.53-4.5,4.13-7.37-1.75.26-2.37.27-2.93.46-58.25,19.75-116.5,39.48-174.7,59.36-2.82.96-5.74,2.77-7.66,5-6.75,7.83-4.4,15.94,6.48,23.17,77.19,51.3,154.39,102.57,231.59,153.85ZM569.28-1.07c-.15-.76-.3-1.52-.45-2.29-2.68.31-5.38.55-8.05.95-43.78,6.61-87.55,13.35-131.35,19.82-16.72,2.47-25.63-3.64-29.75-19.82-6.98-27.39-13.81-54.82-20.74-82.23-4.8-18.99-9.66-37.96-14.49-56.94-1.59,1.61-1.88,3.06-2.03,4.53-8.62,80.17-17.34,160.34-25.56,240.55-.45,4.39,2.07,11.17,5.45,13.29,3.42,2.16,10.47,1.51,14.46-.64,41.98-22.66,83.68-45.83,125.43-68.92,29.05-16.06,58.07-32.21,87.1-48.31Z"/>
                    <path class="cls-3" d="m373.37,232.84c-77.2-51.28-154.4-102.55-231.59-153.85-10.87-7.22-13.22-15.34-6.48-23.17,1.92-2.23,4.85-4.04,7.66-5,58.2-19.88,116.45-39.62,174.7-59.36.56-.19,1.18-.19,2.93-.46-1.59,2.87-2.7,5.22-4.13,7.37-13.88,20.95-27.85,41.85-41.73,62.81-8.66,13.09-8.43,21.67.89,34.42,32.17,43.99,64.37,87.96,96.55,131.95.88,1.21,1.64,2.51,2.45,3.76-.43.51-.85,1.02-1.28,1.53Z"/>
                    <path class="cls-3" d="m569.28-1.07c-29.03,16.11-58.04,32.25-87.1,48.31-41.75,23.08-83.45,46.26-125.43,68.92-3.99,2.15-11.04,2.8-14.46.64-3.37-2.12-5.9-8.9-5.45-13.29,8.22-80.22,16.94-160.38,25.56-240.55.16-1.47.45-2.92,2.03-4.53,4.83,18.98,9.69,37.95,14.49,56.94,6.93,27.4,13.76,54.83,20.74,82.23,4.12,16.18,13.03,22.29,29.75,19.82,43.81-6.47,87.57-13.2,131.35-19.82,2.67-.4,5.37-.64,8.05-.95.15.76.3,1.52.45,2.29Z"/>
                  </g>
                </g>
                <path class="cls-3" d="m1535.68,388.72c-.21-.63-.42-1.26-.63-1.89-1.5.04-3,0-4.49.13-54.31,4.52-108.62,9.06-162.94,13.56-15.74,1.31-23.19-2.97-29.84-17.19-10.65-22.77-21.19-45.59-31.83-68.36-1.09-2.33-2.52-4.51-4.13-7.36-.69,1.63-1.01,2.16-1.14,2.74-13.53,60-27.07,119.99-40.46,180.02-.65,2.91-.63,6.34.27,9.15,3.16,9.84,11.31,12.06,23.14,6.56,84.02-39.1,168.03-78.23,252.05-117.35Zm-97.4-289.15c-.73-.27-1.46-.54-2.18-.81-1.13,2.45-2.34,4.88-3.39,7.37-17.2,40.81-34.27,81.66-51.6,122.41-6.61,15.55-16.48,19.97-32.43,15.05-27.01-8.33-53.98-16.81-80.97-25.19-18.7-5.81-37.43-11.56-56.14-17.33.55,2.19,1.64,3.2,2.8,4.1,63.91,49.17,127.76,98.42,191.92,147.27,3.51,2.67,10.61,4.06,14.18,2.29,3.63-1.8,6.75-8.15,6.99-12.67,2.57-47.63,4.54-95.3,6.62-142.96,1.45-33.17,2.81-66.34,4.21-99.51Z"/>
                <path class="cls-3" d="m1069.79,240.52c.64-.16,1.29-.31,1.93-.47.09-1.49.25-2.99.26-4.48.17-54.5.31-109,.5-163.5.05-15.8,4.96-22.85,19.69-28.25,23.6-8.65,47.24-17.19,70.84-25.83,2.42-.89,4.71-2.12,7.69-3.48-1.57-.83-2.07-1.19-2.63-1.37-58.61-18.64-117.22-37.29-175.87-55.79-2.84-.9-6.26-1.17-9.14-.52-10.08,2.3-12.99,10.23-8.52,22.49,31.73,87.07,63.5,174.14,95.25,261.21Zm296.45-72.18c.33-.7.66-1.4.99-2.11-2.35-1.34-4.66-2.75-7.05-4.01-39.18-20.64-78.41-41.17-117.52-61.93-14.93-7.93-18.48-18.13-12.2-33.61,10.62-26.19,21.39-52.33,32.06-78.51,7.39-18.14,14.73-36.3,22.09-54.44-2.23.36-3.33,1.36-4.32,2.44-54.49,59.44-109.04,118.82-163.23,178.54-2.97,3.27-4.95,10.22-3.5,13.93,1.48,3.77,7.54,7.43,12.02,8.06,47.24,6.65,94.56,12.71,141.86,18.88,32.92,4.29,65.85,8.5,98.78,12.75Z"/>
                <path class="cls-3" d="m916.94-154.6c-.66-.07-1.32-.15-1.98-.22-.6,1.37-1.26,2.72-1.78,4.12-18.83,51.14-37.64,102.3-56.48,153.43-5.46,14.82-12.48,19.77-28.18,19.79-25.14.04-50.27-.03-75.41,0-2.58,0-5.15.38-8.42.64,1.19,1.31,1.54,1.83,2,2.19,48.68,37.59,97.35,75.2,146.11,112.68,2.36,1.82,5.48,3.25,8.41,3.62,10.26,1.29,15.71-5.16,15.71-18.21.02-92.68.01-185.35.01-278.03Zm-303.24-33.77c-.55.55-1.1,1.09-1.66,1.64,1.75,2.06,3.44,4.18,5.25,6.18,29.73,32.81,59.56,65.54,89.19,98.45,11.31,12.56,11.15,23.37-.05,35.75-18.96,20.97-38.02,41.84-57.02,62.77-13.16,14.5-26.28,29.05-39.41,43.58,2.22.43,3.59-.13,4.9-.81,71.55-37.18,143.15-74.27,214.52-111.81,3.91-2.06,8.16-7.91,8.06-11.89-.1-4.04-4.54-9.56-8.54-11.69-42.1-22.43-84.48-44.34-126.81-66.35-29.46-15.31-58.96-30.55-88.44-45.82Z"/>
                <path class="cls-3" d="m1769.13,116.92c-.66-.07-1.32-.15-1.98-.22-.6,1.37-1.26,2.72-1.78,4.12-18.83,51.14-37.64,102.3-56.48,153.43-5.46,14.82-12.48,19.77-28.18,19.79-25.14.04-50.27-.03-75.41,0-2.58,0-5.15.38-8.42.64,1.19,1.31,1.54,1.83,2,2.19,48.68,37.59,97.35,75.2,146.11,112.68,2.36,1.82,5.48,3.25,8.41,3.62,10.26,1.29,15.71-5.16,15.71-18.21.02-92.68.01-185.35.01-278.03Zm-303.24-33.77c-.55.55-1.1,1.09-1.66,1.64,1.75,2.06,3.44,4.18,5.25,6.18,29.73,32.81,59.56,65.54,89.19,98.45,11.31,12.56,11.15,23.37-.05,35.75-18.96,20.97-38.02,41.84-57.02,62.77-13.16,14.5-26.28,29.05-39.41,43.58,2.22.43,3.59-.13,4.9-.81,71.55-37.18,143.15-74.27,214.52-111.81,3.91-2.06,8.16-7.91,8.06-11.89-.1-4.04-4.54-9.56-8.54-11.69-42.1-22.43-84.48-44.34-126.81-66.35-29.46-15.31-58.96-30.55-88.44-45.82Z"/>
                <path class="cls-3" d="m1558.4-190.96c-.65.12-1.3.24-1.96.37-.17,1.49-.41,2.97-.5,4.46-3.09,54.41-6.15,108.83-9.25,163.24-.9,15.77-6.17,22.55-21.18,27.15-24.03,7.37-48.09,14.64-72.13,22-2.46.75-4.82,1.87-7.87,3.07,1.52.91,2,1.3,2.56,1.51,57.53,21.75,115.05,43.51,172.63,65.13,2.79,1.05,6.19,1.51,9.1,1.01,10.19-1.76,13.52-9.52,9.71-22.01-27.03-88.65-54.08-177.29-81.13-265.93Zm-299.89,56.2c-.37.68-.74,1.37-1.1,2.05,2.27,1.46,4.51,2.99,6.82,4.38,38.01,22.71,76.1,45.31,114.03,68.14,14.48,8.72,17.48,19.09,10.39,34.21-12.01,25.59-24.16,51.11-36.22,76.68-8.35,17.71-16.65,35.45-24.98,53.18,2.25-.24,3.4-1.18,4.45-2.21,57.59-56.44,115.25-112.81,172.55-169.55,3.14-3.11,5.49-9.94,4.24-13.72-1.28-3.84-7.13-7.82-11.58-8.69-46.81-9.17-93.74-17.76-140.65-26.45-32.64-6.05-65.3-12.01-97.96-18.02Z"/>
                <path class="cls-3" d="m356.8,166.92c80.72-45.53,161.43-91.08,242.16-136.59,11.37-6.41,19.67-4.83,23.58,4.74,1.12,2.73,1.4,6.15.98,9.1-8.68,60.89-17.52,121.75-26.35,182.62-.08.58-.37,1.14-.92,2.82-1.83-2.72-3.42-4.78-4.69-7.02-12.38-21.88-24.66-43.81-37.05-65.68-7.73-13.66-15.49-17.35-31.08-14.82-53.8,8.71-107.59,17.47-161.39,26.19-1.47.24-2.98.32-4.46.48-.26-.61-.52-1.22-.78-1.83Z"/>
                <path class="cls-3" d="m-149.12,540.18c80.72-45.53,161.43-91.08,242.16-136.59,11.37-6.41,19.67-4.83,23.58,4.74,1.12,2.73,1.4,6.15.98,9.1-8.68,60.89-17.52,121.75-26.35,182.62-.08.58-.37,1.14-.92,2.82-1.83-2.72-3.42-4.78-4.69-7.02-12.38-21.88-24.66-43.81-37.05-65.68-7.73-13.66-15.49-17.35-31.08-14.82-53.8,8.71-107.59,17.47-161.39,26.19-1.47.24-2.98.32-4.46.48-.26-.61-.52-1.22-.78-1.83Z"/>
                <path class="cls-3" d="m444.35,503.95c28.84-16.45,57.65-32.94,86.52-49.35,41.47-23.58,82.89-47.26,124.6-70.41,3.96-2.2,11-2.93,14.45-.81,3.4,2.08,6,8.83,5.6,13.23-7.26,80.31-15.02,160.57-22.68,240.84-.14,1.47-.41,2.92-1.98,4.55-5.06-18.92-10.15-37.83-15.17-56.76-7.26-27.32-14.41-54.67-21.72-81.97-4.32-16.13-13.3-22.13-29.99-19.47-43.72,6.99-87.41,14.25-131.11,21.38-2.67.44-5.36.7-8.04,1.05-.16-.76-.32-1.52-.48-2.28Z"/>
              </g>
              <g>
                <g class="cls-4">
                  <g>
                    <path class="cls-3" d="m1007.64,501.29c.4-.53.79-1.06,1.19-1.6-.89-1.21-1.71-2.46-2.66-3.61-34.68-42.04-69.39-84.06-104.06-126.11-10.05-12.19-10.78-20.74-2.89-34.31,12.63-21.73,25.36-43.4,38.01-65.13,1.3-2.23,2.27-4.64,3.69-7.59-1.73.37-2.35.4-2.9.63-57,23.1-114.01,46.19-170.96,69.42-2.76,1.13-5.57,3.1-7.36,5.44-6.28,8.21-3.46,16.17,7.81,22.75,80.04,46.72,160.09,93.42,240.14,140.13Zm181.99-244.9c-.19-.75-.39-1.5-.58-2.26-2.66.47-5.34.86-7.98,1.42-43.33,9.14-86.63,18.41-129.98,27.42-16.55,3.44-25.8-2.15-30.86-18.06-8.56-26.94-16.97-53.93-25.48-80.88-5.9-18.68-11.85-37.34-17.78-56-1.49,1.7-1.7,3.17-1.77,4.64-3.95,80.54-8,161.08-11.54,241.63-.19,4.41,2.72,11.03,6.21,12.95,3.54,1.95,10.54.9,14.4-1.48,40.59-25.06,80.87-50.62,121.21-76.09,28.07-17.73,56.1-35.53,84.14-53.29Z"/>
                    <path class="cls-3" d="m1007.64,501.29c-80.05-46.71-160.1-93.4-240.14-140.13-11.27-6.58-14.09-14.54-7.81-22.75,1.79-2.34,4.6-4.31,7.36-5.44,56.95-23.23,113.95-46.32,170.96-69.42.55-.22,1.17-.26,2.9-.63-1.42,2.95-2.4,5.37-3.69,7.59-12.64,21.73-25.37,43.4-38.01,65.13-7.89,13.57-7.16,22.12,2.89,34.31,34.67,42.05,69.38,84.07,104.06,126.11.95,1.15,1.78,2.41,2.66,3.61-.4.53-.79,1.06-1.19,1.6Z"/>
                    <path class="cls-3" d="m1189.63,256.39c-28.05,17.77-56.07,35.57-84.14,53.29-40.34,25.47-80.62,51.03-121.21,76.09-3.86,2.38-10.86,3.43-14.4,1.48-3.49-1.92-6.4-8.54-6.21-12.95,3.54-80.56,7.59-161.09,11.54-241.63.07-1.47.28-2.94,1.77-4.64,5.93,18.67,11.88,37.33,17.78,56,8.51,26.96,16.92,53.94,25.48,80.88,5.06,15.91,14.31,21.5,30.86,18.06,43.36-9,86.65-18.27,129.98-27.42,2.64-.56,5.32-.95,7.98-1.42.19.75.39,1.5.58,2.26Z"/>
                  </g>
                </g>
                <g class="cls-4">
                  <g>
                    <path class="cls-3" d="m694.41,60.75c-.4.53-.79,1.06-1.19,1.6.89,1.21,1.71,2.46,2.66,3.61,34.68,42.04,69.39,84.06,104.06,126.11,10.05,12.19,10.78,20.74,2.89,34.31-12.63,21.73-25.36,43.4-38.01,65.13-1.3,2.23-2.27,4.64-3.69,7.59,1.73-.37,2.35-.4,2.9-.63,57-23.1,114.01-46.19,170.96-69.42,2.76-1.13,5.57-3.1,7.36-5.44,6.28-8.21,3.46-16.17-7.81-22.75-80.04-46.72-160.09-93.42-240.14-140.13Zm-181.99,244.9c.19.75.39,1.5.58,2.26,2.66-.47,5.34-.86,7.98-1.42,43.33-9.14,86.63-18.41,129.98-27.42,16.55-3.44,25.8,2.15,30.86,18.06,8.56,26.94,16.97,53.93,25.48,80.88,5.9,18.68,11.85,37.34,17.78,56,1.49-1.7,1.7-3.17,1.77-4.64,3.95-80.54,8-161.08,11.54-241.63.19-4.41-2.72-11.03-6.21-12.95-3.54-1.95-10.54-.9-14.4,1.48-40.59,25.06-80.87,50.62-121.21,76.09-28.07,17.73-56.1,35.53-84.14,53.29Z"/>
                    <path class="cls-3" d="m694.41,60.75c80.05,46.71,160.1,93.4,240.14,140.13,11.27,6.58,14.09,14.54,7.81,22.75-1.79,2.34-4.6,4.31-7.36,5.44-56.95,23.23-113.95,46.32-170.96,69.42-.55.22-1.17.26-2.9.63,1.42-2.95,2.4-5.37,3.69-7.59,12.64-21.73,25.37-43.4,38.01-65.13,7.89-13.57,7.16-22.12-2.89-34.31-34.67-42.05-69.38-84.07-104.06-126.11-.95-1.15-1.78-2.41-2.66-3.61.4-.53.79-1.06,1.19-1.6Z"/>
                    <path class="cls-3" d="m512.42,305.65c28.05-17.77,56.07-35.57,84.14-53.29,40.34-25.47,80.62-51.03,121.21-76.09,3.86-2.38,10.86-3.43,14.4-1.48,3.49,1.92,6.4,8.54,6.21,12.95-3.54,80.56-7.59,161.09-11.54,241.63-.07,1.47-.28,2.94-1.77,4.64-5.93-18.67-11.88-37.33-17.78-56-8.51-26.96-16.92-53.94-25.48-80.88-5.06-15.91-14.31-21.5-30.86-18.06-43.36,9-86.65,18.27-129.98,27.42-2.64.56-5.32.95-7.98,1.42-.19-.75-.39-1.5-.58-2.26Z"/>
                  </g>
                </g>
                <g class="cls-4">
                  <g>
                    <path class="cls-3" d="m982.2,424.19c.26.61.53,1.22.79,1.83,1.49-.17,2.99-.26,4.46-.51,53.73-9.15,107.45-18.34,161.17-27.48,15.57-2.65,23.36.97,31.2,14.57,12.56,21.77,25.02,43.6,37.57,65.38,1.29,2.23,2.9,4.28,4.75,6.98.54-1.68.82-2.24.9-2.83,8.34-60.94,16.69-121.87,24.88-182.83.4-2.95.09-6.37-1.05-9.09-3.99-9.53-12.3-11.05-23.62-4.55-80.36,46.16-160.71,92.35-241.06,138.53Zm121.83,279.74c.75.21,1.5.41,2.25.62.92-2.54,1.91-5.06,2.74-7.63,13.63-42.13,27.15-84.3,40.92-126.38,5.26-16.06,14.7-21.31,31.02-17.77,27.63,5.99,55.22,12.12,82.83,18.16,19.13,4.18,38.28,8.31,57.42,12.46-.74-2.14-1.9-3.05-3.15-3.84-67.89-43.51-135.73-87.11-203.83-130.28-3.73-2.36-10.92-3.13-14.32-1.06-3.46,2.1-6.03,8.7-5.88,13.23,1.53,47.68,3.65,95.34,5.66,143,1.4,33.17,2.89,66.34,4.34,99.51Z"/>
                    <path class="cls-3" d="m982.2,424.19c80.35-46.18,160.7-92.37,241.06-138.53,11.32-6.5,19.63-4.98,23.62,4.55,1.14,2.72,1.45,6.14,1.05,9.09-8.2,60.96-16.55,121.89-24.88,182.83-.08.59-.36,1.14-.9,2.83-1.85-2.71-3.46-4.75-4.75-6.98-12.55-21.78-25.01-43.61-37.57-65.38-7.84-13.6-15.63-17.22-31.2-14.57-53.73,9.14-107.45,18.33-161.17,27.48-1.47.25-2.97.35-4.46.51-.26-.61-.53-1.22-.79-1.83Z"/>
                    <path class="cls-3" d="m1104.02,703.92c-1.45-33.17-2.94-66.34-4.34-99.51-2.01-47.66-4.14-95.32-5.66-143-.15-4.53,2.42-11.12,5.88-13.23,3.4-2.07,10.6-1.3,14.32,1.06,68.11,43.17,135.94,86.76,203.83,130.28,1.24.8,2.41,1.7,3.15,3.84-19.14-4.15-38.29-8.27-57.42-12.46-27.61-6.04-55.21-12.17-82.83-18.16-16.32-3.54-25.76,1.71-31.02,17.77-13.77,42.08-27.28,84.25-40.92,126.38-.83,2.57-1.82,5.09-2.74,7.63-.75-.21-1.5-.41-2.25-.62Z"/>
                  </g>
                </g>
                <g class="cls-4">
                  <g>
                    <path class="cls-3" d="m775.42,496.58c-.2.67-.39,1.35-.59,2.02,1.32.87,2.6,1.81,3.97,2.6,49.8,28.88,99.61,57.73,149.4,86.62,14.43,8.37,18.3,16.58,15.48,32.91-4.52,26.16-9.16,52.3-13.69,78.46-.46,2.68-.54,5.43-.86,8.88,1.58-1,2.18-1.27,2.64-1.69,47.95-43.83,95.91-87.65,143.76-131.58,2.32-2.13,4.38-5.11,5.29-8.09,3.2-10.44-2.52-17.28-16.1-19.66-96.43-16.84-192.86-33.65-289.3-50.47Z"/>
                    <path class="cls-3" d="m618.39,675.51c29.03-16.11,58.04-32.25,87.1-48.31,41.75-23.08,83.45-46.26,125.43-68.92,3.99-2.15,11.04-2.8,14.46-.64,3.37,2.12,5.9,8.9,5.45,13.29-8.22,80.22-16.94,160.38-25.56,240.55-.16,1.47-.45,2.92-2.03,4.53-4.83-18.98-9.69-37.95-14.49-56.94-6.93-27.4-13.76-54.83-20.74-82.23-4.12-16.18-13.03-22.29-29.75-19.82-43.81,6.47-87.57,13.2-131.35,19.82-2.67.4-5.37.64-8.05.95-.15-.76-.3-1.52-.45-2.29Z"/>
                  </g>
                </g>
              </g>
            </g>
            <g>
              <g class="cls-4">
                <g>
                  <path class="cls-3" d="m1407.03,897.11c.4-.53.79-1.06,1.19-1.6-.89-1.21-1.71-2.46-2.66-3.61-34.68-42.04-69.39-84.06-104.06-126.11-10.05-12.19-10.78-20.74-2.89-34.31,12.63-21.73,25.36-43.4,38.01-65.13,1.3-2.23,2.27-4.64,3.69-7.59-1.73.37-2.35.4-2.9.63-57,23.1-114.01,46.19-170.96,69.42-2.76,1.13-5.57,3.1-7.36,5.44-6.28,8.21-3.46,16.17,7.81,22.75,80.04,46.72,160.09,93.42,240.14,140.13Zm181.99-244.9c-.19-.75-.39-1.5-.58-2.26-2.66.47-5.34.86-7.98,1.42-43.33,9.14-86.63,18.41-129.98,27.42-16.55,3.44-25.8-2.15-30.86-18.06-8.56-26.94-16.97-53.93-25.48-80.88-5.9-18.68-11.85-37.34-17.78-56-1.49,1.7-1.7,3.17-1.77,4.64-3.95,80.54-8,161.08-11.54,241.63-.19,4.41,2.72,11.03,6.21,12.95,3.54,1.95,10.54.9,14.4-1.48,40.59-25.06,80.87-50.62,121.21-76.09,28.07-17.73,56.1-35.53,84.14-53.29Z"/>
                  <path class="cls-3" d="m1407.03,897.11c-80.05-46.71-160.1-93.4-240.14-140.13-11.27-6.58-14.09-14.54-7.81-22.75,1.79-2.34,4.6-4.31,7.36-5.44,56.95-23.23,113.95-46.32,170.96-69.42.55-.22,1.17-.26,2.9-.63-1.42,2.95-2.4,5.37-3.69,7.59-12.64,21.73-25.37,43.4-38.01,65.13-7.89,13.57-7.16,22.12,2.89,34.31,34.67,42.05,69.38,84.07,104.06,126.11.95,1.15,1.78,2.41,2.66,3.61-.4.53-.79,1.06-1.19,1.6Z"/>
                  <path class="cls-3" d="m1589.01,652.21c-28.05,17.77-56.07,35.57-84.14,53.29-40.34,25.47-80.62,51.03-121.21,76.09-3.86,2.38-10.86,3.43-14.4,1.48-3.49-1.92-6.4-8.54-6.21-12.95,3.54-80.56,7.59-161.09,11.54-241.63.07-1.47.28-2.94,1.77-4.64,5.93,18.67,11.88,37.33,17.78,56,8.51,26.96,16.92,53.94,25.48,80.88,5.06,15.91,14.31,21.5,30.86,18.06,43.36-9,86.65-18.27,129.98-27.42,2.64-.56,5.32-.95,7.98-1.42.19.75.39,1.5.58,2.26Z"/>
                </g>
              </g>
              <g class="cls-4">
                <g>
                  <path class="cls-3" d="m941.97,1082.81c-.4.53-.79,1.06-1.19,1.6.89,1.21,1.71,2.46,2.66,3.61,34.68,42.04,69.39,84.06,104.06,126.11,10.05,12.19,10.78,20.74,2.89,34.31-12.63,21.73-25.36,43.4-38.01,65.13-1.3,2.23-2.27,4.64-3.69,7.59,1.73-.37,2.35-.4,2.9-.63,57-23.1,114.01-46.19,170.96-69.42,2.76-1.13,5.57-3.1,7.36-5.44,6.28-8.21,3.46-16.17-7.81-22.75-80.04-46.72-160.09-93.42-240.14-140.13Zm-181.99,244.9c.19.75.39,1.5.58,2.26,2.66-.47,5.34-.86,7.98-1.42,43.33-9.14,86.63-18.41,129.98-27.42,16.55-3.44,25.8,2.15,30.86,18.06,8.56,26.94,16.97,53.93,25.48,80.88,5.9,18.68,11.85,37.34,17.78,56,1.49-1.7,1.7-3.17,1.77-4.64,3.95-80.54,8-161.08,11.54-241.63.19-4.41-2.72-11.03-6.21-12.95-3.54-1.95-10.54-.9-14.4,1.48-40.59,25.06-80.87,50.62-121.21,76.09-28.07,17.73-56.1,35.53-84.14,53.29Z"/>
                  <path class="cls-3" d="m941.97,1082.81c80.05,46.71,160.1,93.4,240.14,140.13,11.27,6.58,14.09,14.54,7.81,22.75-1.79,2.34-4.6,4.31-7.36,5.44-56.95,23.23-113.95,46.32-170.96,69.42-.55.22-1.17.26-2.9.63,1.42-2.95,2.4-5.37,3.69-7.59,12.64-21.73,25.37-43.4,38.01-65.13,7.89-13.57,7.16-22.12-2.89-34.31-34.67-42.05-69.38-84.07-104.06-126.11-.95-1.15-1.78-2.41-2.66-3.61.4-.53.79-1.06,1.19-1.6Z"/>
                  <path class="cls-3" d="m759.99,1327.71c28.05-17.77,56.07-35.57,84.14-53.29,40.34-25.47,80.62-51.03,121.21-76.09,3.86-2.38,10.86-3.43,14.4-1.48,3.49,1.92,6.4,8.54,6.21,12.95-3.54,80.56-7.59,161.09-11.54,241.63-.07,1.47-.28,2.94-1.77,4.64-5.93-18.67-11.88-37.33-17.78-56-8.51-26.96-16.92-53.94-25.48-80.88-5.06-15.91-14.31-21.5-30.86-18.06-43.36,9-86.65,18.27-129.98,27.42-2.64.56-5.32.95-7.98,1.42-.19-.75-.39-1.5-.58-2.26Z"/>
                </g>
              </g>
              <g class="cls-4">
                <g>
                  <path class="cls-3" d="m1381.58,820c.26.61.53,1.22.79,1.83,1.49-.17,2.99-.26,4.46-.51,53.73-9.15,107.45-18.34,161.17-27.48,15.57-2.65,23.36.97,31.2,14.57,12.56,21.77,25.02,43.6,37.57,65.38,1.29,2.23,2.9,4.28,4.75,6.98.54-1.68.82-2.24.9-2.83,8.34-60.94,16.69-121.87,24.88-182.83.4-2.95.09-6.37-1.05-9.09-3.99-9.53-12.3-11.05-23.62-4.55-80.36,46.16-160.71,92.35-241.06,138.53Zm121.83,279.74c.75.21,1.5.41,2.25.62.92-2.54,1.91-5.06,2.74-7.63,13.63-42.13,27.15-84.3,40.92-126.38,5.26-16.06,14.7-21.31,31.02-17.77,27.63,5.99,55.22,12.12,82.83,18.16,19.13,4.18,38.28,8.31,57.42,12.46-.74-2.14-1.9-3.05-3.15-3.84-67.89-43.51-135.73-87.11-203.83-130.28-3.73-2.36-10.92-3.13-14.32-1.06-3.46,2.1-6.03,8.7-5.88,13.23,1.53,47.68,3.65,95.34,5.66,143,1.4,33.17,2.89,66.34,4.34,99.51Z"/>
                  <path class="cls-3" d="m1381.58,820c80.35-46.18,160.7-92.37,241.06-138.53,11.32-6.5,19.63-4.98,23.62,4.55,1.14,2.72,1.45,6.14,1.05,9.09-8.2,60.96-16.55,121.89-24.88,182.83-.08.59-.36,1.14-.9,2.83-1.85-2.71-3.46-4.75-4.75-6.98-12.55-21.78-25.01-43.61-37.57-65.38-7.84-13.6-15.63-17.22-31.2-14.57-53.73,9.14-107.45,18.33-161.17,27.48-1.47.25-2.97.35-4.46.51-.26-.61-.53-1.22-.79-1.83Z"/>
                  <path class="cls-3" d="m1503.41,1099.74c-1.45-33.17-2.94-66.34-4.34-99.51-2.01-47.66-4.14-95.32-5.66-143-.15-4.53,2.42-11.12,5.88-13.23,3.4-2.07,10.6-1.3,14.32,1.06,68.11,43.17,135.94,86.76,203.83,130.28,1.24.8,2.41,1.7,3.15,3.84-19.14-4.15-38.29-8.27-57.42-12.46-27.61-6.04-55.21-12.17-82.83-18.16-16.32-3.54-25.76,1.71-31.02,17.77-13.77,42.08-27.28,84.25-40.92,126.38-.83,2.57-1.82,5.09-2.74,7.63-.75-.21-1.5-.41-2.25-.62Z"/>
                </g>
              </g>
              <g class="cls-4">
                <g>
                  <path class="cls-3" d="m1259.54,858.74c-.43.51-.85,1.02-1.28,1.53.81,1.26,1.57,2.56,2.45,3.76,32.18,43.99,64.38,87.95,96.55,131.95,9.32,12.75,9.56,21.33.89,34.42-13.87,20.96-27.84,41.86-41.73,62.81-1.42,2.15-2.53,4.5-4.13,7.37,1.75-.26,2.37-.27,2.93-.46,58.25-19.75,116.5-39.48,174.7-59.36,2.82-.96,5.74-2.77,7.66-5,6.75-7.83,4.4-15.94-6.48-23.17-77.19-51.3-154.39-102.57-231.59-153.85Zm-195.91,233.91c.15.76.3,1.52.45,2.29,2.68-.31,5.38-.55,8.05-.95,43.78-6.61,87.55-13.35,131.35-19.82,16.72-2.47,25.63,3.64,29.75,19.82,6.98,27.39,13.81,54.82,20.74,82.23,4.8,18.99,9.66,37.96,14.49,56.94,1.59-1.61,1.88-3.06,2.03-4.53,8.62-80.17,17.34-160.34,25.56-240.55.45-4.39-2.07-11.17-5.45-13.29-3.42-2.16-10.47-1.51-14.46.64-41.98,22.66-83.68,45.83-125.43,68.92-29.05,16.06-58.07,32.21-87.1,48.31Z"/>
                  <path class="cls-3" d="m1259.54,858.74c77.2,51.28,154.4,102.55,231.59,153.85,10.87,7.22,13.22,15.34,6.48,23.17-1.92,2.23-4.85,4.04-7.66,5-58.2,19.88-116.45,39.62-174.7,59.36-.56.19-1.18.19-2.93.46,1.59-2.87,2.7-5.22,4.13-7.37,13.88-20.95,27.85-41.85,41.73-62.81,8.66-13.09,8.43-21.67-.89-34.42-32.17-43.99-64.37-87.96-96.55-131.95-.88-1.21-1.64-2.51-2.45-3.76.43-.51.85-1.02,1.28-1.53Z"/>
                  <path class="cls-3" d="m1063.63,1092.65c29.03-16.11,58.04-32.25,87.1-48.31,41.75-23.08,83.45-46.26,125.43-68.92,3.99-2.15,11.04-2.8,14.46-.64,3.37,2.12,5.9,8.9,5.45,13.29-8.22,80.22-16.94,160.38-25.56,240.55-.16,1.47-.45,2.92-2.03,4.53-4.83-18.98-9.69-37.95-14.49-56.94-6.93-27.4-13.76-54.83-20.74-82.23-4.12-16.18-13.03-22.29-29.75-19.82-43.81,6.47-87.57,13.2-131.35,19.82-2.67.4-5.37.64-8.05.95-.15-.76-.3-1.52-.45-2.29Z"/>
                </g>
              </g>
              <path class="cls-3" d="m29.8,643.61c.21.63.42,1.26.63,1.89,1.5-.04,3,0,4.49-.13,54.31-4.52,108.62-9.06,162.94-13.56,15.74-1.31,23.19,2.97,29.84,17.19,10.65,22.77,21.19,45.59,31.83,68.36,1.09,2.33,2.52,4.51,4.13,7.36.69-1.63,1.01-2.16,1.14-2.74,13.53-60,27.07-119.99,40.46-180.02.65-2.91.63-6.34-.27-9.15-3.16-9.84-11.31-12.06-23.14-6.56-84.02,39.1-168.03,78.23-252.05,117.35Zm124.01,313.37c.73.27,1.46.54,2.18.81,1.13-2.45,2.34-4.88,3.39-7.37,17.2-40.81,34.27-81.66,51.6-122.41,6.61-15.55,16.48-19.97,32.43-15.05,27.01,8.33,53.98,16.81,80.97,25.19,18.7,5.81,37.43,11.56,56.14,17.33-.55-2.19-1.64-3.2-2.8-4.1-63.91-49.17-127.76-98.42-191.92-147.27-3.51-2.67-10.61-4.06-14.18-2.29-3.63,1.8-6.75,8.15-6.99,12.67-2.57,47.63-4.54,95.3-6.62,142.96-1.45,33.17-2.81,66.34-4.21,99.51Z"/>
              <path class="cls-3" d="m574.82,1250.7c-.21-.63-.42-1.26-.63-1.89-1.5.03-3,0-4.49.11-54.33,4.33-108.65,8.69-162.98,13-15.75,1.25-23.18-3.05-29.78-17.29-10.57-22.81-21.03-45.66-31.59-68.47-1.08-2.34-2.5-4.52-4.11-7.38-.69,1.63-1.02,2.16-1.15,2.74-13.73,59.95-27.49,119.9-41.08,179.88-.66,2.9-.65,6.34.24,9.15,3.13,9.85,11.27,12.1,23.12,6.64,84.16-38.81,168.3-77.66,252.45-116.49Zm-96.4-289.48c-.73-.27-1.45-.54-2.18-.82-1.14,2.45-2.35,4.87-3.41,7.36-17.34,40.75-34.55,81.54-52.02,122.23-6.67,15.53-16.54,19.91-32.48,14.94-26.98-8.42-53.92-17-80.88-25.47-18.68-5.87-37.39-11.68-56.08-17.52.54,2.2,1.63,3.21,2.79,4.11,63.74,49.39,127.42,98.86,191.41,147.93,3.5,2.69,10.6,4.09,14.17,2.33,3.63-1.78,6.78-8.13,7.04-12.65,2.73-47.63,4.86-95.29,7.11-142.94,1.56-33.16,3.03-66.33,4.55-99.5Z"/>
              <path class="cls-3" d="m506.44,1194.94c.47.47.93.95,1.4,1.42,1.33-.69,2.69-1.32,3.98-2.08,46.86-27.83,93.7-55.69,140.56-83.51,13.58-8.06,22.15-7.48,34.35,2.4,19.54,15.81,39.01,31.71,58.54,47.53,2,1.62,4.24,2.95,6.94,4.81-.1-1.77-.04-2.39-.17-2.96-14.1-59.87-28.17-119.74-42.41-179.57-.69-2.9-2.21-5.98-4.25-8.11-7.15-7.47-15.45-5.9-23.68,4.23-58.43,71.93-116.84,143.89-175.26,215.83Zm214.13,217.35c.77-.08,1.55-.15,2.32-.23-.06-2.7-.03-5.41-.18-8.11-2.4-44.22-4.93-88.42-7.18-132.65-.86-16.88,6.07-25.17,22.57-27.73,27.93-4.33,55.89-8.51,83.83-12.79,19.36-2.97,38.71-5.99,58.07-8.99-1.45-1.73-2.87-2.16-4.32-2.46-78.98-16.24-157.95-32.58-237.01-48.42-4.33-.87-11.32,1-13.75,4.15-2.47,3.2-2.5,10.28-.74,14.46,18.54,43.95,37.63,87.67,56.62,131.44,13.22,30.46,26.51,60.88,39.77,91.32Z"/>
              <path class="cls-3" d="m-203.65,915.41c.66.07,1.32.15,1.98.22.6-1.37,1.26-2.72,1.78-4.12,18.83-51.14,37.64-102.3,56.48-153.43,5.46-14.82,12.48-19.77,28.18-19.79,25.14-.04,50.27.03,75.41,0,2.58,0,5.15-.38,8.42-.64-1.19-1.31-1.54-1.83-2-2.19-48.68-37.59-97.35-75.2-146.11-112.68-2.36-1.82-5.48-3.25-8.41-3.62-10.26-1.29-15.71,5.16-15.71,18.21-.02,92.68-.01,185.35-.01,278.03Zm303.24,33.77c.55-.55,1.1-1.09,1.66-1.64-1.75-2.06-3.44-4.18-5.25-6.18-29.73-32.81-59.56-65.54-89.19-98.45-11.31-12.56-11.15-23.37.05-35.75,18.96-20.97,38.02-41.84,57.02-62.77,13.16-14.5,26.28-29.05,39.41-43.58-2.22-.43-3.59.13-4.9.81-71.55,37.18-143.15,74.27-214.52,111.81-3.91,2.06-8.16,7.91-8.06,11.89.1,4.04,4.54,9.56,8.54,11.69,42.1,22.43,84.48,44.34,126.81,66.35,29.46,15.31,58.96,30.55,88.44,45.82Z"/>
              <path class="cls-3" d="m1263.11,916.98c-80.72,45.53-161.43,91.08-242.16,136.59-11.37,6.41-19.67,4.83-23.58-4.74-1.12-2.73-1.4-6.15-.98-9.1,8.68-60.89,17.52-121.75,26.35-182.62.08-.58.37-1.14.92-2.82,1.83,2.72,3.42,4.78,4.69,7.02,12.38,21.88,24.66,43.81,37.05,65.68,7.73,13.66,15.49,17.35,31.08,14.82,53.8-8.71,107.59-17.47,161.39-26.19,1.47-.24,2.98-.32,4.46-.48.26.61.52,1.22.78,1.83Z"/>
              <path class="cls-3" d="m1714.6,492.16c-80.72,45.53-161.43,91.08-242.16,136.59-11.37,6.41-19.67,4.83-23.58-4.74-1.12-2.73-1.4-6.15-.98-9.1,8.68-60.89,17.52-121.75,26.35-182.62.08-.58.37-1.14.92-2.82,1.83,2.72,3.42,4.78,4.69,7.02,12.38,21.88,24.66,43.81,37.05,65.68,7.73,13.66,15.49,17.35,31.08,14.82,53.8-8.71,107.59-17.47,161.39-26.19,1.47-.24,2.98-.32,4.46-.48.26.61.52,1.22.78,1.83Z"/>
              <path class="cls-3" d="m1070.98,808.27c-28.84,16.45-57.65,32.94-86.52,49.35-41.47,23.58-82.89,47.26-124.6,70.41-3.96,2.2-11,2.93-14.45.81-3.4-2.08-6-8.83-5.6-13.23,7.26-80.31,15.02-160.57,22.68-240.84.14-1.47.41-2.92,1.98-4.55,5.06,18.92,10.15,37.83,15.17,56.76,7.26,27.32,14.41,54.67,21.72,81.97,4.32,16.13,13.3,22.13,29.99,19.47,43.72-6.99,87.41-14.25,131.11-21.38,2.67-.44,5.36-.7,8.04-1.05.16.76.32,1.52.48,2.28Z"/>
              <g>
                <path class="cls-3" d="m558.36,684.16c-.4.53-.79,1.06-1.19,1.6.89,1.21,1.71,2.46,2.66,3.61,34.68,42.04,69.39,84.06,104.06,126.11,10.05,12.19,10.78,20.74,2.89,34.31-12.63,21.73-25.36,43.4-38.01,65.13-1.3,2.23-2.27,4.64-3.69,7.59,1.73-.37,2.35-.4,2.9-.63,57-23.1,114.01-46.19,170.96-69.42,2.76-1.13,5.57-3.1,7.36-5.44,6.28-8.21,3.46-16.17-7.81-22.75-80.04-46.72-160.09-93.42-240.14-140.13Zm-229.55,251.06c.19.75.39,1.5.58,2.26,2.66-.47,5.34-.86,7.98-1.42,43.33-9.14,86.63-18.41,129.98-27.42,16.55-3.44,25.8,2.15,30.86,18.06,8.56,26.94,16.97,53.93,25.48,80.88,5.9,18.68,11.85,37.34,17.78,56,1.49-1.7,1.7-3.17,1.77-4.64,3.95-80.54,8-161.08,11.54-241.63.19-4.41-2.72-11.03-6.21-12.95-3.54-1.95-10.54-.9-14.4,1.48-40.59,25.06-80.87,50.62-121.21,76.09-28.07,17.73-56.1,35.53-84.14,53.29Z"/>
                <path class="cls-3" d="m558.36,684.16c80.05,46.71,160.1,93.4,240.14,140.13,11.27,6.58,14.09,14.54,7.81,22.75-1.79,2.34-4.6,4.31-7.36,5.44-56.95,23.23-113.95,46.32-170.96,69.42-.55.22-1.17.26-2.9.63,1.42-2.95,2.4-5.37,3.69-7.59,12.64-21.73,25.37-43.4,38.01-65.13,7.89-13.57,7.16-22.12-2.89-34.31-34.67-42.05-69.38-84.07-104.06-126.11-.95-1.15-1.78-2.41-2.66-3.61.4-.53.79-1.06,1.19-1.6Z"/>
              </g>
              <g class="cls-4">
                <g>
                  <path class="cls-3" d="m1615.77,1382.99c.4-.53.79-1.06,1.19-1.6-.89-1.21-1.71-2.46-2.66-3.61-34.68-42.04-69.39-84.06-104.06-126.11-10.05-12.19-10.78-20.74-2.89-34.31,12.63-21.73,25.36-43.4,38.01-65.13,1.3-2.23,2.27-4.64,3.69-7.59-1.73.37-2.35.4-2.9.63-57,23.1-114.01,46.19-170.96,69.42-2.76,1.13-5.57,3.1-7.36,5.44-6.28,8.21-3.46,16.17,7.81,22.75,80.04,46.72,160.09,93.42,240.14,140.13Zm181.99-244.9c-.19-.75-.39-1.5-.58-2.26-2.66.47-5.34.86-7.98,1.42-43.33,9.14-86.63,18.41-129.98,27.42-16.55,3.44-25.8-2.15-30.86-18.06-8.56-26.94-16.97-53.93-25.48-80.88-5.9-18.68-11.85-37.34-17.78-56-1.49,1.7-1.7,3.17-1.77,4.64-3.95,80.54-8,161.08-11.54,241.63-.19,4.41,2.72,11.03,6.21,12.95,3.54,1.95,10.54.9,14.4-1.48,40.59-25.06,80.87-50.62,121.21-76.09,28.07-17.73,56.1-35.53,84.14-53.29Z"/>
                  <path class="cls-3" d="m1615.77,1382.99c-80.05-46.71-160.1-93.4-240.14-140.13-11.27-6.58-14.09-14.54-7.81-22.75,1.79-2.34,4.6-4.31,7.36-5.44,56.95-23.23,113.95-46.32,170.96-69.42.55-.22,1.17-.26,2.9-.63-1.42,2.95-2.4,5.37-3.69,7.59-12.64,21.73-25.37,43.4-38.01,65.13-7.89,13.57-7.16,22.12,2.89,34.31,34.67,42.05,69.38,84.07,104.06,126.11.95,1.15,1.78,2.41,2.66,3.61-.4.53-.79,1.06-1.19,1.6Z"/>
                  <path class="cls-3" d="m1797.76,1138.09c-28.05,17.77-56.07,35.57-84.14,53.29-40.34,25.47-80.62,51.03-121.21,76.09-3.86,2.38-10.86,3.43-14.4,1.48-3.49-1.92-6.4-8.54-6.21-12.95,3.54-80.56,7.59-161.09,11.54-241.63.07-1.47.28-2.94,1.77-4.64,5.93,18.67,11.88,37.33,17.78,56,8.51,26.96,16.92,53.94,25.48,80.88,5.06,15.91,14.31,21.5,30.86,18.06,43.36-9,86.65-18.27,129.98-27.42,2.64-.56,5.32-.95,7.98-1.42.19.75.39,1.5.58,2.26Z"/>
                </g>
              </g>
              <g class="cls-4">
                <g>
                  <path class="cls-3" d="m1342.01,1594.96c.4-.53.79-1.06,1.19-1.6-.89-1.21-1.71-2.46-2.66-3.61-34.68-42.04-69.39-84.06-104.06-126.11-10.05-12.19-10.78-20.74-2.89-34.31,12.63-21.73,25.36-43.4,38.01-65.13,1.3-2.23,2.27-4.64,3.69-7.59-1.73.37-2.35.4-2.9.63-57,23.1-114.01,46.19-170.96,69.42-2.76,1.13-5.57,3.1-7.36,5.44-6.28,8.21-3.46,16.17,7.81,22.75,80.04,46.72,160.09,93.42,240.14,140.13Zm181.99-244.9c-.19-.75-.39-1.5-.58-2.26-2.66.47-5.34.86-7.98,1.42-43.33,9.14-86.63,18.41-129.98,27.42-16.55,3.44-25.8-2.15-30.86-18.06-8.56-26.94-16.97-53.93-25.48-80.88-5.9-18.68-11.85-37.34-17.78-56-1.49,1.7-1.7,3.17-1.77,4.64-3.95,80.54-8,161.08-11.54,241.63-.19,4.41,2.72,11.03,6.21,12.95,3.54,1.95,10.54.9,14.4-1.48,40.59-25.06,80.87-50.62,121.21-76.09,28.07-17.73,56.1-35.53,84.14-53.29Z"/>
                  <path class="cls-3" d="m1523.99,1350.06c-28.05,17.77-56.07,35.57-84.14,53.29-40.34,25.47-80.62,51.03-121.21,76.09-3.86,2.38-10.86,3.43-14.4,1.48-3.49-1.92-6.4-8.54-6.21-12.95,3.54-80.56,7.59-161.09,11.54-241.63.07-1.47.28-2.94,1.77-4.64,5.93,18.67,11.88,37.33,17.78,56,8.51,26.96,16.92,53.94,25.48,80.88,5.06,15.91,14.31,21.5,30.86,18.06,43.36-9,86.65-18.27,129.98-27.42,2.64-.56,5.32-.95,7.98-1.42.19.75.39,1.5.58,2.26Z"/>
                </g>
              </g>
              <g class="cls-4">
                <g>
                  <path class="cls-3" d="m795.51,1187.34c.55.12,1.1.24,1.66.36.63-1.11,1.31-2.19,1.87-3.33,20.52-41.66,41.02-83.33,61.56-124.98,5.95-12.07,12.34-15.64,25.65-14.26,21.3,2.21,42.6,4.51,63.9,6.73,2.18.23,4.4.14,7.19.21-.89-1.22-1.14-1.69-1.5-2.04-37.9-36.2-75.78-72.41-113.76-108.52-1.84-1.75-4.36-3.24-6.8-3.82-8.58-2.01-13.77,2.97-14.94,14.03-8.29,78.53-16.55,157.07-24.82,235.6Z"/>
                  <path class="cls-3" d="m795.51,1187.34c8.27-78.53,16.53-157.07,24.82-235.6,1.17-11.06,6.37-16.04,14.94-14.03,2.44.57,4.96,2.07,6.8,3.82,37.98,36.11,75.87,72.32,113.76,108.52.36.35.61.82,1.5,2.04-2.79-.07-5.01.02-7.19-.21-21.3-2.22-42.6-4.52-63.9-6.73-13.3-1.38-19.69,2.18-25.65,14.26-20.53,41.65-41.03,83.32-61.56,124.98-.56,1.14-1.25,2.22-1.87,3.33-.55-.12-1.1-.24-1.66-.36Z"/>
                </g>
              </g>
              <g class="cls-4">
                <path class="cls-3" d="m560.24,543.44c-7.3,32.39-14.56,64.79-21.9,97.16-10.56,46.52-21.01,93.07-32.03,139.48-1.05,4.41-5.26,10.1-9.15,11.22-3.83,1.1-10.57-1.52-13.55-4.78-54.4-59.52-108.44-119.38-162.54-179.17-.99-1.09-1.88-2.28-2.03-4.53,17.38,9.02,34.78,18.02,52.15,27.08,25.07,13.07,50.08,26.22,75.17,39.24,14.82,7.69,25.31,5.11,34.6-9.02,24.33-37,48.42-74.15,72.63-111.23,1.48-2.26,3.09-4.43,4.65-6.64.67.4,1.34.79,2,1.19Z"/>
              </g>
              <g class="cls-4">
                <g>
                  <path class="cls-3" d="m-42.49,1025.51c.09.66.17,1.32.26,1.97,1.48.25,2.94.58,4.43.75,54.15,6.13,108.31,12.23,162.47,18.37,15.7,1.78,22.17,7.42,25.93,22.66,6.02,24.4,11.93,48.84,17.93,73.24.62,2.5,1.59,4.91,2.62,8.03.99-1.47,1.41-1.93,1.65-2.47,24.93-56.22,49.88-112.44,74.68-168.72,1.2-2.73,1.85-6.1,1.51-9.02-1.19-10.27-8.75-14.03-21.43-10.93-90.02,22.02-180.04,44.08-270.05,66.12ZM-3.16,1328.08c.66.41,1.32.81,1.99,1.22,1.59-2.19,3.24-4.33,4.75-6.57,24.8-36.68,49.49-73.44,74.41-110.04,9.51-13.97,20.04-16.39,34.74-8.46,24.88,13.42,49.68,26.98,74.53,40.45,17.22,9.33,34.47,18.61,51.7,27.91-.11-2.26-.98-3.46-1.95-4.57-53.13-60.66-106.19-121.38-159.63-181.76-2.93-3.31-9.62-6.04-13.47-5-3.91,1.06-8.21,6.68-9.32,11.07-11.78,46.23-22.97,92.6-34.28,138.95-7.87,32.25-15.65,64.53-23.47,96.8Z"/>
                  <path class="cls-3" d="m-42.49,1025.51c90.02-22.05,180.03-44.1,270.05-66.12,12.68-3.1,20.24.66,21.43,10.93.34,2.93-.31,6.3-1.51,9.02-24.8,56.28-49.75,112.5-74.68,168.72-.24.54-.66,1-1.65,2.47-1.03-3.11-2.01-5.53-2.62-8.03-6.01-24.41-11.92-48.84-17.93-73.24-3.76-15.24-10.23-20.88-25.93-22.66-54.15-6.14-108.31-12.24-162.47-18.37-1.48-.17-2.95-.49-4.43-.75-.09-.66-.17-1.32-.26-1.97Z"/>
                  <path class="cls-3" d="m-3.16,1328.08c7.82-32.27,15.6-64.54,23.47-96.8,11.3-46.35,22.5-92.72,34.28-138.95,1.12-4.39,5.42-10.01,9.32-11.07,3.85-1.04,10.54,1.69,13.47,5,53.44,60.39,106.5,121.11,159.63,181.76.97,1.11,1.84,2.31,1.95,4.57-17.24-9.3-34.48-18.58-51.7-27.91-24.85-13.47-49.65-27.03-74.53-40.45-14.7-7.93-25.23-5.51-34.74,8.46-24.92,36.6-49.61,73.36-74.41,110.04-1.51,2.24-3.17,4.38-4.75,6.57-.66-.41-1.32-.81-1.99-1.22Z"/>
                </g>
              </g>
            </g>
          </g>
        </g>
      </g>
    </g>
  </g>
</svg>
