<?xml version="1.0" encoding="UTF-8"?><svg id="Ebene_1" xmlns="http://www.w3.org/2000/svg" xmlns:xlink="http://www.w3.org/1999/xlink" viewBox="0 0 4735 5353"><defs><pattern id="ARFinal" x="0" y="0" width="631.4" height="471.87" patternTransform="translate(286 187)" patternUnits="userSpaceOnUse" viewBox="0 0 631.4 471.87"><rect width="631.4" height="471.87" fill="none" stroke-width="0"/><path d="m365.7,403.76c-4.33,28.17-8.63,56.35-13.01,84.51-6.29,40.47-12.48,80.95-19.18,121.35-.64,3.84-3.9,8.96-7.17,10.15-3.21,1.17-9.14-.68-11.88-3.29-50.12-47.75-99.93-95.82-149.81-143.82-.91-.88-1.74-1.84-2.01-3.76,15.42,6.7,30.85,13.38,46.26,20.1,22.24,9.71,44.45,19.49,66.7,29.16,13.15,5.71,21.98,2.88,29.1-9.77,18.64-33.13,37.08-66.37,55.62-99.56,1.13-2.02,2.39-3.98,3.59-5.97.6.3,1.19.6,1.79.9Z" stroke="#000" stroke-miterlimit="10"/><path d="m375.24,642.13c1.58-28.42,3.12-56.83,4.73-85.25,2.32-40.83,4.55-81.66,7.29-122.46.26-3.88,3.01-9.29,6.15-10.79,3.08-1.48,9.16-.23,12.14,2.1,54.5,42.51,108.74,85.37,163.02,128.15.99.78,1.91,1.65,2.36,3.54-15.99-5.14-32-10.25-47.98-15.42-23.07-7.46-46.11-14.99-69.2-22.41-13.64-4.38-22.15-.69-28,12.57-15.33,34.75-30.45,69.59-45.67,104.39-.93,2.12-1.99,4.19-2.99,6.28-.62-.24-1.24-.48-1.86-.72Z" stroke="#000" stroke-miterlimit="10"/><path d="m107.78,391.77c31.46,73.07,62.93,146.15,94.37,219.23,4.43,10.29,2.32,17.23-6.21,19.69-2.43.7-5.38.63-7.86,0-51.17-13-102.31-26.13-153.46-39.24-.49-.13-.94-.42-2.32-1.05,2.49-1.31,4.39-2.48,6.42-3.36,19.81-8.56,39.65-17.03,59.46-25.6,12.37-5.35,16.23-11.63,15.5-25.17-2.5-46.72-5.04-93.44-7.55-140.16-.07-1.28,0-2.57,0-3.85.55-.17,1.09-.33,1.64-.5Z" stroke="#000" stroke-miterlimit="10"/><path d="m534.13,638.05c62.78-48.87,125.57-97.73,188.35-146.61,8.84-6.88,10.33-13.98,4.05-20.25-1.79-1.79-4.41-3.14-6.88-3.79-51.1-13.27-102.24-26.42-153.37-39.57-.49-.13-1.03-.09-2.54-.2,1.55,2.35,2.65,4.29,4.01,6.04,13.23,17.04,26.54,34.03,39.76,51.08,8.26,10.65,8.61,18.01,1.45,29.53-24.71,39.73-49.45,79.44-74.16,119.17-.68,1.09-1.24,2.25-1.86,3.38.4.41.8.82,1.19,1.22Z" stroke="#000" stroke-miterlimit="10"/><path d="m-97.27,638.05c62.78-48.87,125.57-97.73,188.35-146.61,8.84-6.88,10.33-13.98,4.05-20.25-1.79-1.79-4.41-3.14-6.88-3.79-51.1-13.27-102.24-26.42-153.37-39.57-.49-.13-1.03-.09-2.54-.2,1.55,2.35,2.65,4.29,4.01,6.04,13.23,17.04,26.54,34.03,39.76,51.08,8.26,10.65,8.61,18.01,1.45,29.53-24.71,39.73-49.45,79.44-74.16,119.17-.68,1.09-1.24,2.25-1.86,3.38.4.41.8.82,1.19,1.22Z" stroke="#000" stroke-miterlimit="10"/><path d="m726.27,451.13c-26.42-10.7-52.84-21.37-79.25-32.11-37.93-15.43-75.91-30.78-113.68-46.6-3.59-1.5-7.82-5.86-8.23-9.31-.4-3.4,2.76-8.74,5.94-10.81,58.01-37.78,116.25-75.19,174.44-112.68,1.06-.69,2.19-1.27,4.12-1.09-10.07,13.47-20.12,26.94-30.21,40.39-14.57,19.41-29.2,38.76-43.73,58.2-8.58,11.48-7.86,20.73,2.81,30.56,27.95,25.77,56.05,51.36,84.08,77.04,1.71,1.57,3.32,3.24,4.98,4.86-.43.51-.86,1.02-1.28,1.53Z" stroke="#000" stroke-miterlimit="10"/><path d="m462.42,237.63c10.24,4.54,13.41,11.07,8.83,18.67-1.31,2.17-3.52,4.12-5.76,5.34-46.38,25.24-92.82,50.36-139.25,75.49-.45.24-.97.33-2.42.81.93-2.66,1.53-4.81,2.43-6.83,8.72-19.74,17.52-39.44,26.23-59.18,5.44-12.33,4-19.56-5.73-29-33.58-32.58-67.19-65.13-100.78-97.7-.92-.89-1.75-1.88-2.62-2.83.29-.49.57-.98.86-1.48,72.74,32.23,145.48,64.46,218.21,96.71Zm-283.46,76.08c31.99-25.57,63.93-51.21,96.18-76.45,3.06-2.4,8.94-3.96,12.14-2.63,3.16,1.31,6.28,6.68,6.53,10.46,4.64,69.07,8.85,138.16,13.15,207.25.08,1.26.04,2.53-1.07,4.13-6.83-15.36-13.69-30.71-20.5-46.09-9.82-22.19-19.57-44.41-29.43-66.58-5.83-13.1-14.25-16.98-28.04-12.47-36.13,11.8-72.19,23.83-108.29,35.76-2.2.73-4.45,1.32-6.68,1.97-.24-.62-.47-1.25-.71-1.87,22.24-17.83,44.46-35.68,66.72-53.47Z" fill="none" stroke="#000" stroke-miterlimit="10"/><path d="m244.21,140.93c72.74,32.23,145.48,64.46,218.21,96.71,10.24,4.54,13.41,11.07,8.83,18.67-1.31,2.17-3.52,4.12-5.76,5.34-46.38,25.24-92.82,50.36-139.25,75.49-.45.24-.97.33-2.42.81.93-2.66,1.53-4.81,2.43-6.83,8.72-19.74,17.52-39.44,26.23-59.18,5.44-12.33,4-19.56-5.73-29-33.58-32.58-67.19-65.13-100.78-97.7-.92-.89-1.75-1.88-2.62-2.83.29-.49.57-.98.86-1.48Z" stroke="#000" stroke-miterlimit="10"/><path d="m112.25,367.18c22.24-17.83,44.46-35.68,66.72-53.47,31.99-25.57,63.93-51.21,96.18-76.45,3.06-2.4,8.94-3.96,12.14-2.63,3.16,1.31,6.28,6.68,6.53,10.46,4.64,69.07,8.85,138.16,13.15,207.25.08,1.26.04,2.53-1.07,4.13-6.83-15.36-13.69-30.71-20.5-46.09-9.82-22.19-19.57-44.41-29.43-66.58-5.83-13.1-14.25-16.98-28.04-12.47-36.13,11.8-72.19,23.83-108.29,35.76-2.2.73-4.45,1.32-6.68,1.97-.24-.62-.47-1.25-.71-1.87Z" stroke="#000" stroke-miterlimit="10"/><path d="m571.32,471.23c-73.51-30.44-147.02-60.86-220.52-91.32-10.35-4.29-13.68-10.73-9.28-18.44,1.25-2.2,3.41-4.2,5.63-5.48,45.74-26.37,91.55-52.62,137.36-78.89.44-.25.96-.36,2.4-.87-.87,2.68-1.42,4.84-2.26,6.89-8.23,19.95-16.54,39.86-24.77,59.81-5.14,12.46-3.52,19.65,6.44,28.85,34.37,31.74,68.77,63.46,103.15,95.19.94.87,1.79,1.84,2.69,2.76-.28.5-.55,1-.83,1.5Z" stroke="#000" stroke-miterlimit="10"/><path d="m224.63,221.99c10.48,3.97,14,10.31,9.85,18.15-1.18,2.24-3.28,4.31-5.46,5.65-44.9,27.77-89.88,55.43-134.85,83.1-.43.27-.95.39-2.37.94.79-2.7,1.27-4.89,2.05-6.95,7.61-20.19,15.3-40.35,22.91-60.55,4.75-12.61,2.91-19.75-7.33-28.64-35.34-30.66-70.7-61.3-106.04-91.95-.97-.84-1.85-1.78-2.77-2.68.26-.51.52-1.01.78-1.52,74.41,28.15,148.83,56.29,223.24,84.45Z" stroke="#000" stroke-miterlimit="10"/><path d="m94.86,451.13c-26.42-10.7-52.84-21.37-79.25-32.11-37.93-15.43-75.91-30.78-113.68-46.6-3.59-1.5-7.82-5.86-8.23-9.31-.4-3.4,2.76-8.74,5.94-10.81,58.01-37.78,116.25-75.19,174.44-112.68,1.06-.69,2.19-1.27,4.12-1.09-10.07,13.47-20.12,26.94-30.21,40.39-14.57,19.41-29.2,38.76-43.73,58.2-8.58,11.48-7.86,20.73,2.81,30.56,27.95,25.77,56.05,51.36,84.08,77.04,1.71,1.57,3.32,3.24,4.98,4.86-.43.51-.86,1.02-1.28,1.53Z" stroke="#000" stroke-miterlimit="10"/><path d="m415.36,159.71c28.07,4.66,56.15,9.3,84.22,14,40.33,6.76,80.68,13.43,120.94,20.6,3.82.68,8.9,4.01,10.06,7.29,1.14,3.23-.77,9.13-3.41,11.84-48.2,49.54-96.71,98.78-145.16,148.08-.89.9-1.85,1.72-3.78,1.96,6.85-15.34,13.68-30.69,20.56-46.01,9.93-22.12,19.93-44.2,29.82-66.34,5.84-13.08,3.1-21.94-9.44-29.2-32.87-19.03-65.86-37.85-98.79-56.77-2.01-1.15-3.95-2.43-5.92-3.66.3-.59.61-1.18.91-1.78Z" stroke="#000" stroke-miterlimit="10"/><path d="m365.7-68.1c-4.33,28.17-8.63,56.35-13.01,84.51-6.29,40.47-12.48,80.95-19.18,121.35-.64,3.84-3.9,8.96-7.17,10.15-3.21,1.17-9.14-.68-11.88-3.29C264.35,96.86,214.53,48.8,164.66.79c-.91-.88-1.74-1.84-2.01-3.76,15.42,6.7,30.85,13.38,46.26,20.1,22.24,9.71,44.45,19.49,66.7,29.16,13.15,5.71,21.98,2.88,29.1-9.77,18.64-33.13,37.08-66.37,55.62-99.56,1.13-2.02,2.39-3.98,3.59-5.97.6.3,1.19.6,1.79.9Z" stroke="#000" stroke-miterlimit="10"/><path d="m375.24,170.27c1.58-28.42,3.12-56.83,4.73-85.25,2.32-40.83,4.55-81.66,7.29-122.46.26-3.88,3.01-9.29,6.15-10.79,3.08-1.48,9.16-.23,12.14,2.1,54.5,42.51,108.74,85.37,163.02,128.15.99.78,1.91,1.65,2.36,3.54-15.99-5.14-32-10.25-47.98-15.42-23.07-7.46-46.11-14.99-69.2-22.41-13.64-4.38-22.15-.69-28,12.57-15.33,34.75-30.45,69.59-45.67,104.39-.93,2.12-1.99,4.19-2.99,6.28-.62-.24-1.24-.48-1.86-.72Z" stroke="#000" stroke-miterlimit="10"/><path d="m107.78-80.09c31.46,73.07,62.93,146.15,94.37,219.23,4.43,10.29,2.32,17.23-6.21,19.69-2.43.7-5.38.63-7.86,0-51.17-13-102.31-26.13-153.46-39.24-.49-.13-.94-.42-2.32-1.05,2.49-1.31,4.39-2.48,6.42-3.36,19.81-8.56,39.65-17.03,59.46-25.6,12.37-5.35,16.23-11.63,15.5-25.17-2.5-46.72-5.04-93.44-7.55-140.16-.07-1.28,0-2.57,0-3.85.55-.17,1.09-.33,1.64-.5Z" stroke="#000" stroke-miterlimit="10"/><path d="m534.13,166.18c62.78-48.87,125.57-97.73,188.35-146.61,8.84-6.88,10.33-13.98,4.05-20.25-1.79-1.79-4.41-3.14-6.88-3.79-51.1-13.27-102.24-26.42-153.37-39.57-.49-.13-1.03-.09-2.54-.2,1.55,2.35,2.65,4.29,4.01,6.04,13.23,17.04,26.54,34.03,39.76,51.08,8.26,10.65,8.61,18.01,1.45,29.53-24.71,39.73-49.45,79.44-74.16,119.17-.68,1.09-1.24,2.25-1.86,3.38.4.41.8.82,1.19,1.22Z" stroke="#000" stroke-miterlimit="10"/><path d="m-97.27,166.18C-34.49,117.32,28.3,68.46,91.07,19.58c8.84-6.88,10.33-13.98,4.05-20.25-1.79-1.79-4.41-3.14-6.88-3.79C37.14-17.73-14-30.88-65.13-44.03c-.49-.13-1.03-.09-2.54-.2,1.55,2.35,2.65,4.29,4.01,6.04C-50.43-21.15-37.13-4.16-23.9,12.89c8.26,10.65,8.61,18.01,1.45,29.53-24.71,39.73-49.45,79.44-74.16,119.17-.68,1.09-1.24,2.25-1.86,3.38.4.41.8.82,1.19,1.22Z" stroke="#000" stroke-miterlimit="10"/></pattern></defs><rect x=".5" y=".5" width="4734" height="5352" fill="url(#ARFinal)" stroke="#000" stroke-miterlimit="10"/></svg>
