<?xml version="1.0" encoding="UTF-8"?><svg id="Ebene_2" xmlns="http://www.w3.org/2000/svg" xmlns:xlink="http://www.w3.org/1999/xlink" viewBox="0 0 1942 1147"><defs><pattern id="Background" x="0" y="0" width="150" height="150" patternTransform="translate(6 26)" patternUnits="userSpaceOnUse" viewBox="0 0 150 150"><rect width="150" height="150" fill="none" stroke-width="0"/><path d="m154.55,187.95c3.18,2.24,3.91,6.5,1.67,9.68s-6.5,3.91-9.68,1.67c-3.18-2.24-3.91-6.5-1.67-9.68s6.5-3.91,9.68-1.67m-27.7-16.15s.67,3.87-.93,6.14l-5.61,7.94c-1.28,1.82-.81,4.53,1,5.81s4.53.81,5.81-1l5.61-7.94c1.6-2.27,5.47-2.94,5.47-2.94l-11.35-8.01m3.87-.67l6.81,4.81s11.35,8.01,19.36-3.34c8.01-11.35,2.14-22.29-3.54-26.3s-17.95-5.87-25.96,5.47c-8.01,11.35,3.34,19.36,3.34,19.36Z" stroke-width="0"/><path d="m39.08,165.47c5.96-1.25,11.91-2.51,17.36-1.31s9.77,7.26,15.19,8.45c5.45,1.19,11.94-2.5,17.36-1.31l-1.61,7.33c-5.42-1.19-11.91,2.51-17.36,1.31-5.42-1.19-9.77-7.26-15.19-8.45-5.45-1.19-11.4.06-17.36,1.31l1.61-7.33m18.96-8.64c-1.9-.42-3.85-.54-5.84-.46l13.86-5.77-1.88-3.58c-.25-.49-.35-1.1-.22-1.69.18-.83.76-1.5,1.52-1.79l16.11-6.71,1.94,4.6-13.63,5.69,9.44,18.01c-2.11.38-4.17.57-6.1.15-5.42-1.19-9.77-7.26-15.19-8.45m26-9.66c2.7.59,4.4,3.26,3.81,5.95s-3.26,4.4-5.95,3.81-4.4-3.26-3.81-5.95,3.26-4.4,5.95-3.81Z" stroke-width="0"/><path d="m4.55,187.95c3.18,2.24,3.91,6.5,1.67,9.68s-6.5,3.91-9.68,1.67c-3.18-2.24-3.91-6.5-1.67-9.68s6.5-3.91,9.68-1.67m-27.7-16.15s.67,3.87-.93,6.14l-5.61,7.94c-1.28,1.82-.81,4.53,1,5.81s4.53.81,5.81-1l5.61-7.94c1.6-2.27,5.47-2.94,5.47-2.94l-11.35-8.01m3.87-.67l6.81,4.81s11.35,8.01,19.36-3.34c8.01-11.35,2.14-22.29-3.54-26.3s-17.95-5.87-25.96,5.47c-8.01,11.35,3.34,19.36,3.34,19.36Z" stroke-width="0"/><path d="m50.04,76.78c1.58-.25,3.15-.22,4.77.1,3.29.65,5.95,2.24,8,4.79l-9.22,6.18c-2.02-3.46-3.2-7.18-3.55-11.07m34.76-5.45c4.12,4.56,9.17,6.47,15.13,5.74-.03.53-.14,1.48-.39,2.78-.5,2.53-1.67,5.23-3.44,8.11-1.76,2.86-3.68,5.08-5.72,6.64l-12.47-18.54,6.9-4.73m-19.96,13.49c1.86,4.27,1.59,8.47-.83,12.63-3.28-1.69-6.09-3.88-8.26-6.55l9.1-6.08m10.04-6.73l12.41,18.58c-6.24,3.61-12.88,4.34-19.85,2.17.83-1.52,1.45-3.23,1.83-5.14.3-1.52.31-3.38.02-5.55-.29-2.17-.77-4-1.42-5.48l6.99-4.58m-8.91,1.5c-1.88-2.49-4.28-4.28-7.15-5.46-2.88-1.15-5.78-1.55-8.74-1.16.03-.55.14-1.5.4-2.8.5-2.53,1.67-5.23,3.44-8.11,1.76-2.86,3.68-5.08,5.72-6.64l13.1,19.63-6.76,4.55m19.83-13.34c-2.49-4.7-2.38-9.26.33-13.67,1.44.69,3.04,1.77,4.78,3.29,1.72,1.49,3.1,2.9,4.11,4.2l-9.22,6.18m14.16,7c-1.57.22-3.15.19-4.77-.12-2.67-.53-5.09-1.82-7.23-3.92l9.05-5.99c1.63,3.12,2.6,6.45,2.94,10.03m-24.06-.34l-13.19-19.57c6.24-3.61,12.88-4.34,19.87-2.17-.86,1.51-1.48,3.23-1.85,5.14-.35,1.77-.35,3.83.02,6.22.37,2.37.96,4.32,1.93,5.86l-6.78,4.52Z" stroke-width="0"/><path d="m154.55,37.95c3.18,2.24,3.91,6.5,1.67,9.68s-6.5,3.91-9.68,1.67c-3.18-2.24-3.91-6.5-1.67-9.68s6.5-3.91,9.68-1.67m-27.7-16.15s.67,3.87-.93,6.14l-5.61,7.94c-1.28,1.82-.81,4.53,1,5.81s4.53.81,5.81-1l5.61-7.94c1.6-2.27,5.47-2.94,5.47-2.94l-11.35-8.01m3.87-.67l6.81,4.81s11.35,8.01,19.36-3.34c8.01-11.35,2.14-22.29-3.54-26.3s-17.95-5.87-25.96,5.47c-8.01,11.35,3.34,19.36,3.34,19.36Z" stroke-width="0"/><path d="m171.21,101.16c2.2-1.06,4.83-.14,5.89,2.06s.14,4.83-2.06,5.89-4.83.14-5.89-2.06-.14-4.83,2.06-5.89m-22.04-28.82l-11.97,15.82,11.53,23.93c7.73-3.2,14.49-3.81,15.76-1.16,1.4,2.91-4.57,8.73-13.35,12.96-8.77,4.23-17.05,5.27-18.45,2.36-.94-1.96,1.44-5.2,5.74-8.41l2.21,4.58,5.3-2.55-22.98-47.7,26.2.17Z" stroke-width="0"/><path d="m39.08,15.47c5.96-1.25,11.91-2.51,17.36-1.31s9.77,7.26,15.19,8.45c5.45,1.19,11.94-2.5,17.36-1.31l-1.61,7.33c-5.42-1.19-11.91,2.51-17.36,1.31-5.42-1.19-9.77-7.26-15.19-8.45-5.45-1.19-11.4.06-17.36,1.31l1.61-7.33m18.96-8.64c-1.9-.42-3.85-.54-5.84-.46l13.86-5.77-1.88-3.58c-.25-.49-.35-1.1-.22-1.69.18-.83.76-1.5,1.52-1.79l16.11-6.71,1.94,4.6-13.63,5.69,9.44,18.01c-2.11.38-4.17.57-6.1.15-5.42-1.19-9.77-7.26-15.19-8.45m26-9.66c2.7.59,4.4,3.26,3.81,5.95s-3.26,4.4-5.95,3.81-4.4-3.26-3.81-5.95,3.26-4.4,5.95-3.81Z" stroke-width="0"/><path d="m121.43,137.15l3.58-3.57-3.58-3.58-8.92,8.92-21.42-21.42,8.92-8.92-3.58-3.58-3.57,3.58-3.58-3.58-5.35,5.35-3.58-3.57-3.57,3.57,3.57,3.58-5.35,5.35,3.58,3.58-3.58,3.57,3.58,3.58,8.92-8.92,21.42,21.42-8.92,8.92,3.58,3.58,3.57-3.58,3.58,3.58,5.35-5.35,3.58,3.58,3.58-3.58-3.58-3.58,5.35-5.35-3.58-3.58Z" stroke-width="0"/><path d="m45.7,139.82l-.67-2.32,3.84-5.93,2.27-.16,1.2,1.5-.05.21c-.03.1,0,.2-.03.29-.75,2.93-2.4,5.26-4.91,6.99l-1.64-.56m-9.85-5.89l-.5-6.51,6.35-2.39,4.41,5.15-3.57,5.46-6.68-1.72m1.42,8.33c-1.31-.34-2.49-.86-3.55-1.58l-.45-2.51,1.4-1.38,7.59,1.95.49,1.87-1.6,1.98c-1.28.11-2.57,0-3.87-.33m-7.92-6.5c-.55-1.12-.92-2.53-1.11-4.18-.19-1.66-.14-3.11.17-4.31.02-.09.09-.17.12-.27l.05-.21,1.77-.73,1.91,1.24.5,7.05-1.71,1.71-1.71-.3m12.06-15.77l-.53,2.08-7,2.59-1.83-1.13-.11-2.18c.91-.84,2.14-1.6,3.67-2.26s2.91-.98,4.15-1.01l1.65,1.91m5.33-.12c1.07.62,2.13,1.58,3.15,2.88,1.03,1.31,1.73,2.57,2.13,3.74l-1.14,1.86-2.15.13-4.88-5.64.54-2.09,2.36-.88m-14.21-2.73c-3.61,2.17-6,5.3-7.05,9.38s-.46,7.97,1.65,11.62,5.3,6,9.38,7.05,7.97.46,11.62-1.65,6-5.3,7.05-9.38.46-7.97-1.65-11.62c-2.12-3.65-5.3-6-9.38-7.05s-7.97-.46-11.62,1.65Z" stroke-width="0"/><path d="m37.01,36.47c-3.28-1.55-6.67-1.93-10.18-1.14l1.79,5.25,15.63,3.05c-1.55-3.2-3.97-5.61-7.25-7.17m-1.71,28.37c4.99-1.71,8.25-5.06,9.8-10.06l-5.43-1.16-10.47,12c2.08.15,4.13-.11,6.1-.79m-3.8-15.86l14.14,2.72c.17-1.58.1-3.16-.23-4.72l-15.63-3.05,1.73,5.05m-10.06,13.81c1.41.99,2.82,1.71,4.23,2.1l10.52-11.86-5.28-1.03-9.47,10.79m2.55-26.49c-1.46.65-2.78,1.53-4.01,2.67l5.13,15.02,3.55-4.03-4.67-13.65m-8.16,18.99c.69,2.02,1.81,3.87,3.33,5.54l3.6-4.21-5.1-14.92c-2.88,4.23-3.5,8.73-1.84,13.59Z" stroke-width="0"/><path d="m4.55,37.95c3.18,2.24,3.91,6.5,1.67,9.68s-6.5,3.91-9.68,1.67c-3.18-2.24-3.91-6.5-1.67-9.68s6.5-3.91,9.68-1.67m-27.7-16.15s.67,3.87-.93,6.14l-5.61,7.94c-1.28,1.82-.81,4.53,1,5.81s4.53.81,5.81-1l5.61-7.94c1.6-2.27,5.47-2.94,5.47-2.94l-11.35-8.01m3.87-.67l6.81,4.81s11.35,8.01,19.36-3.34C14.89,11.25,9.02.31,3.35-3.7S-14.61-9.57-22.62,1.77c-8.01,11.35,3.34,19.36,3.34,19.36Z" stroke-width="0"/><path d="m21.21,101.16c2.2-1.06,4.83-.14,5.89,2.06s.14,4.83-2.06,5.89-4.83.14-5.89-2.06-.14-4.83,2.06-5.89M-.83,72.34l-11.97,15.82L-1.27,112.09c7.73-3.2,14.49-3.81,15.76-1.16,1.4,2.91-4.57,8.73-13.35,12.96-8.77,4.23-17.05,5.27-18.45,2.36-.94-1.96,1.44-5.2,5.74-8.41l2.21,4.58,5.3-2.55-22.98-47.7,26.2.17Z" stroke-width="0"/><path d="m121.43-12.85l3.58-3.57-3.58-3.58-8.92,8.92-21.42-21.42,8.92-8.92-3.58-3.58-3.57,3.58-3.58-3.58-5.35,5.35-3.58-3.57-3.57,3.57,3.57,3.58-5.35,5.35,3.58,3.58-3.58,3.57,3.58,3.58,8.92-8.92,21.42,21.42-8.92,8.92,3.58,3.58,3.57-3.58,3.58,3.58,5.35-5.35,3.58,3.58,3.58-3.58-3.58-3.58,5.35-5.35-3.58-3.58Z" stroke-width="0"/></pattern></defs><g id="Ebene_1-2"><rect width="1942" height="1147" fill="url(#Background)" stroke-width="0"/></g></svg>
