<?xml version="1.0" encoding="UTF-8"?>
<svg id="Ebene_2" data-name="Ebene 2" xmlns="http://www.w3.org/2000/svg" viewBox="0 0 95.4 87.32">
  <defs>
    <style>
      .cls-1 {
        fill: #487dbf;
        stroke-width: 0px;
      }
    </style>
  </defs>
  <g id="Ebene_1-2" data-name="Ebene 1">
    <path class="cls-1" d="m95.4,1.42c-5.86,11.32-11.71,22.64-17.59,33.95-8.45,16.25-16.86,32.52-25.47,48.68-.82,1.53-2.93,3.24-4.49,3.28-1.53.04-3.78-1.59-4.56-3.09C28.88,56.83,14.64,29.35.37,1.88.11,1.38-.11.85.06,0c5.58,5.04,11.16,10.08,16.73,15.13,8.04,7.29,16.05,14.61,24.1,21.89,4.76,4.3,8.9,4.36,13.72.02,12.63-11.37,25.2-22.82,37.79-34.24.77-.7,1.58-1.34,2.37-2.02.21.21.42.42.63.64Z"/>
  </g>
</svg>
